<svg id="blob" data-name="Layer 3" xmlns:xlink="http://www.w3.org/1999/xlink" viewBox="0 0 143.79 576.24">
  <defs>
    <radialGradient id="New_Gradient_Swatch_2" cx="205.27" cy="124.66" r="106.46" gradientUnits="userSpaceOnUse">
      <stop offset=".01" stop-color="#ff9c12"/>
      <stop offset=".19" stop-color="#fa9712"/>
      <stop offset=".4" stop-color="#ed8a14"/>
      <stop offset=".62" stop-color="#d67316"/>
      <stop offset=".84" stop-color="#b65419"/>
      <stop offset="1" stop-color="#9c3a1c"/>
    </radialGradient>
    <radialGradient id="New_Gradient_Swatch_2-2" cx="205.62" cy="286.6" r="70.08" xlink:href="#New_Gradient_Swatch_2"/>
    <radialGradient id="New_Gradient_Swatch_2-3" cx="200.85" cy="196.06" r="49.43" xlink:href="#New_Gradient_Swatch_2"/>
    <radialGradient id="New_Gradient_Swatch_2-4" cx="196.51" cy="511.91" r="77.35" xlink:href="#New_Gradient_Swatch_2"/>
    <radialGradient id="New_Gradient_Swatch_2-5" cx="197.41" cy="587.08" r="44.28" xlink:href="#New_Gradient_Swatch_2"/>
    <radialGradient id="radial-gradient" cx="207.65" cy="361.86" fx="147.1070144" fy="411.09431401" r="78.04" gradientTransform="matrix(-.79037 -.61263 .71065 -.91683 113.56 822.16)" gradientUnits="userSpaceOnUse">
      <stop offset="0" stop-color="#ff9c12"/>
      <stop offset=".18" stop-color="#fa9712"/>
      <stop offset=".39" stop-color="#ed8a14"/>
      <stop offset=".61" stop-color="#d67316"/>
      <stop offset=".84" stop-color="#b65419"/>
      <stop offset="1" stop-color="#9c3a1c"/>
    </radialGradient>
  </defs>
  <path id="blob0" d="M269.69 83.21c-9.48 36.2-40.31 55.07-71.13 50.12-31.09-5.53-63-24.29-69.94-50.12-7.07-25.57 23.62-60.43 71.13-65.69 47.77-5.21 79.52 29.76 69.94 65.69z" transform="translate(-127.6 -17)" fill="url(#New_Gradient_Swatch_2)"/>
  <path id="blob1" d="M249.87 246.79c-8.26 19-30.81 38-50.37 47.66s-42.11-5.53-50.37-28.59c-8.26-21.86 14.29-38.43 50.37-47.67s58.63 8.33 50.37 28.6z" transform="translate(-127.6 -17)" fill="url(#New_Gradient_Swatch_2-2)"/>
  <path id="blob2" d="M166.46 176.13c5.85-15.21 20.31-33.8 33-35.17 12.74-.93 27.19 18.3 33 36.35s-8.95 32.1-33 30.58c-24.07-2.13-38.89-16.47-33-31.76z" transform="translate(-127.6 -17)" fill="url(#New_Gradient_Swatch_2-3)"/>
  <path id="blob3" d="M235.53 474c-3.91 30.92-28.78 51.25-43.7 47.68-15.2-3.42-23.78-24.56-28-46.93-3.66-22.19 5-42.68 28-47.68 22.66-5.2 47.63 15.79 43.7 46.93z" transform="translate(-127.6 -17)" fill="url(#New_Gradient_Swatch_2-4)"/>
  <path id="blob4" d="M232.71 563.24c-3.26 25.76-30.71 32.31-43.15 29.33-12.66-2.85-20.41-9.34-23.89-28-3-18.49 7.14-26.69 26.25-30.86 18.88-4.26 44.08 3.62 40.79 29.53z" transform="translate(-127.6 -17)" fill="url(#New_Gradient_Swatch_2-5)"/>
  <path id="blob5" d="M251.59 359.06c5.87 9.41 4.72 20.51-4.86 28.65-9.27 8.6-27 14.23-47.23 23.33s-38 2.22-47.23-6.55c-9.58-9.53-10.73-20.89-4.86-38.27 5.88-19.46 16.38-40.34 25.66-48.06 9.58-9 20-8.25 26.43-3.92 7.12 4.76 16.94 14.1 26.5 22.76 9.29 9.64 19.71 14.84 25.59 22.06z" transform="translate(-127.6 -17)" fill="url(#radial-gradient)"/>
</svg>